<?xml version="1.0" standalone="no"?>
<svg xmlns="http://www.w3.org/2000/svg" viewBox="0 0 1440 320">
<path fill="#F49F0A" fill-opacity="0.95" d="M0,96L26.7,117.3C53.3,139,107,181,160,186.7C213.3,192,267,160,320,160C373.3,160,427,192,480,202.7C533.3,213,587,203,640,192C693.3,181,747,171,800,181.3C853.3,192,907,224,960,208C1013.3,192,1067,128,1120,117.3C1173.3,107,1227,149,1280,149.3C1333.3,149,1387,107,1413,85.3L1440,64L1440,320L1413.3,320C1386.7,320,1333,320,1280,320C1226.7,320,1173,320,1120,320C1066.7,320,1013,320,960,320C906.7,320,853,320,800,320C746.7,320,693,320,640,320C586.7,320,533,320,480,320C426.7,320,373,320,320,320C266.7,320,213,320,160,320C106.7,320,53,320,27,320L0,320Z"></path></svg>